<?xml version="1.0" encoding="utf-8"?>
<!-- Generator: Adobe Illustrator 25.4.1, SVG Export Plug-In . SVG Version: 6.00 Build 0)  -->
<svg version="1.1" id="Calque_3" xmlns="http://www.w3.org/2000/svg" xmlns:xlink="http://www.w3.org/1999/xlink" x="0px" y="0px"
	 viewBox="0 0 155.9 155.9" style="enable-background:new 0 0 155.9 155.9;" xml:space="preserve">
<style type="text/css">
	.st0{fill:#EEE8CB;}
	.st1{fill:#8D652E;}
	.st2{fill:#F7E636;}
	.st3{fill:#DCC72F;}
	.st4{fill:#F4F4F4;}
	.st5{fill:#6EAADE;}
</style>
<g>
	<path class="st0" d="M52.2,90.5c11.3,15.2,29.3,1.9,18-13.3c-20.5-18.3-20-44.5-27.8-45.4C32.6,30.8,25.4,57.8,52.2,90.5z"/>
	<path class="st1" d="M123.8,88.2l6,4.8c-1.5,2.2-3.2,4.2-5,6.2c-3-2.3-6.4-5.2-8.6-8.1C118.9,90.3,121.4,89.3,123.8,88.2z"/>
	<path class="st2" d="M73.7,54.8c12.5-3,20.7,5.2,20.7,5.2c-11.8-5.9-29.3,7.5-26.8,11.8c8.9,14.9,26.5,23.5,44.7,20.2
		c1.3-0.2,2.6-0.6,3.9-0.9c2.2,2.8,5.6,5.8,8.6,8.1c-24.5,11.4-53.9,4.7-66.3-18.3C53.4,71.5,63.1,57.3,73.7,54.8z"/>
	<path class="st3" d="M25.4,92.2c0,0,2.4-9.3,14.2-13.7c11.6-4.3,18.9,2.4,18.9,2.4c9.4,15.6,27.9,24.7,47,21.2c5.7-1,11-3.1,15.6-6
		c1.2,1.1,2.5,2.1,3.7,3c-6.7,7-15.6,12-25.8,13.9c-16.1,2.9-31.8-2.6-42.5-13.4C40.1,80.3,25.4,92.2,25.4,92.2z"/>
	<path class="st4" d="M73.1,88.8c-5.1-3-7.7-8-5.8-11.2c0.6-1,1.6-1.7,2.9-2.1c0.3,0.4,0.6,0.8,0.9,1.2c-0.9,0.3-1.7,0.9-2.1,1.6
		c-1.5,2.6,0.6,6.6,4.7,9.1c4,2.4,8.5,2.3,10.1-0.1c0.6,0.4,1.3,0.7,2,1c0,0,0,0.1,0,0.1C83.9,91.6,78.2,91.8,73.1,88.8z"/>
	<path class="st5" d="M83.8,87.3c-1.7,2.4-6.1,2.5-10.1,0.1C69.6,85,67.5,81,69,78.4c0.5-0.8,1.2-1.3,2.1-1.6
		C74.7,81.1,79,84.7,83.8,87.3z"/>
	<path class="st2" d="M25.4,92.2c-0.4,8.6,6.4,22.1,18,23.9c11.6,1.8-14.7-32.1,2.8-39C46.2,77.1,26.1,77.1,25.4,92.2z"/>
	<path class="st3" d="M70.8,55.8c25.9-9.9,34.6,20.5,21.7,16.9C87.8,71.4,85.1,62.4,70.8,55.8z"/>
</g>
</svg>
