<?xml version="1.0" encoding="utf-8"?>
<!-- Generator: Adobe Illustrator 25.4.1, SVG Export Plug-In . SVG Version: 6.00 Build 0)  -->
<svg version="1.1" id="Calque_1" xmlns="http://www.w3.org/2000/svg" xmlns:xlink="http://www.w3.org/1999/xlink" x="0px" y="0px"
	 viewBox="0 0 155.9 155.9" style="enable-background:new 0 0 155.9 155.9;" xml:space="preserve">
<style type="text/css">
	.st0{fill:#F0F5F6;}
	.st1{fill:#D2D6D7;}
	.st2{fill:#694F44;}
	.st3{fill:#846A56;}
	.st4{fill:#A99069;}
	.st5{fill:#F6F2D8;}
	.st6{opacity:0.6;}
	.st7{fill:#A6ABAD;}
</style>
<path class="st0" d="M127.5,82.6c0-6.6-4.4-10.7-13.3-8.2c-0.6,0.2-2.3,0.3-2.3,0.3l-1.5,5.9l3.8-3.1l7.7-0.4L127.5,82.6"/>
<path class="st0" d="M124.3,82.3c0,6.2-14.6,7.8-19,10.9c-1.9,1.3-5,7.1-5,7.1l25.9-15"/>
<path class="st1" d="M127.5,82.3c0-3.8-5.5-8.5-13.3-5.7c-0.5,0.2-2.3,0.3-2.3,0.3l-1.5,5.9l2.2-0.5c0,0,0.4-2.1,2.1-3.6
	c2.2-2,9.7-1.5,9.7,3.3"/>
<path class="st1" d="M124.4,81.9c0,7.9-15,10.4-19.4,13.5c-1.9,1.3-4,5.4-4,5.4s1.6,0.3,2,0c6.8-5.6,24.6-8,24.6-18.4"/>
<path class="st1" d="M80.2,112.1c6.6,0,10.8-1.6,12.6-2.7c4.8-3,5.2-6.7,5.2-6.7H62.4c0,0,0.5,3.7,5.2,6.7
	C69.4,110.5,73.6,112.1,80.2,112.1"/>
<path class="st0" d="M113,69.6H47.5c0,0,0.9,15.6,9.6,28.2c3.2,4.7,10.9,11.4,23.1,11.4c12.2,0,19.9-6.7,23.1-11.4
	C112.1,85.2,113,69.6,113,69.6z"/>
<ellipse class="st0" cx="80.2" cy="69.7" rx="32.7" ry="13.6"/>
<path class="st1" d="M80.2,61.7c15.1,0,27.6,4.3,30.6,10c0.4-0.8,0.7-1.7,0.7-2.6c0-7-14-12.6-31.2-12.6C63,56.5,49,62.2,49,69.1
	c0,0.9,0.2,1.7,0.7,2.6C52.6,66,65.2,61.7,80.2,61.7z"/>
<path class="st2" d="M80.2,81.7c15.1,0,27.6-4.3,30.6-10c-2.9-5.7-15.5-10-30.6-10c-15.1,0-27.6,4.3-30.6,10
	C52.6,77.4,65.2,81.7,80.2,81.7z"/>
<path class="st3" d="M101.2,68.3c-4.6-5.3-19.6-2.9-21-0.3c-1.9-2.8-16.5-5-21,0.3c-2.8,3.3,3.7,6.4,10.1,8.6c4.1,1.6,0,3.3,0,3.3
	c16.2,0,27.6-5.7,27.6-5.7C100.8,72.6,103.1,70.5,101.2,68.3z"/>
<path class="st4" d="M93.6,70.2c-2.7-4.3-12.7-2.5-13.8-0.4c-1.1-2.3-10.6-4.1-13.8,0c-2,2.6,2,5.1,6.2,6.9c2.6,1.3-0.2,2.6-0.2,2.6
	C82.6,79.5,90.5,75,90.5,75h0C93,73.6,94.7,71.9,93.6,70.2z"/>
<path class="st5" d="M89,71.7c-1.8-2.9-8.5-1.7-9.2-0.3c-0.7-1.5-7.1-2.7-9.3,0c-1.4,1.7,1.4,3.4,4.1,4.6c1.7,0.9-0.1,1.8-0.1,1.8
	C81.6,78,86.9,75,86.9,75C88.6,74,89.7,72.9,89,71.7z"/>
<g class="st6">
	<path class="st7" d="M82,44.6c-4.9-5.1-1.6-12.5-1.6-12.5S70,41.9,76.6,48.7c7.6,7.8,3.8,12.7,3.8,12.7S89.7,52.6,82,44.6z"/>
	<path class="st7" d="M67.3,49.2c-3.7-3.7-1.2-9.1-1.2-9.1s-7.8,7.2-2.9,12.1c5.7,5.7,2.9,9.3,2.9,9.3S73.1,55,67.3,49.2z"/>
	<path class="st7" d="M96.6,49.2c-3.7-3.7-1.2-9.1-1.2-9.1s-7.8,7.2-2.9,12.1c5.7,5.7,2.9,9.3,2.9,9.3S102.4,55,96.6,49.2z"/>
</g>
</svg>
