<?xml version="1.0" encoding="utf-8"?>
<!-- Generator: Adobe Illustrator 25.4.1, SVG Export Plug-In . SVG Version: 6.00 Build 0)  -->
<svg version="1.1" xmlns="http://www.w3.org/2000/svg" xmlns:xlink="http://www.w3.org/1999/xlink" x="0px" y="0px"
	 viewBox="0 0 155.9 155.9" style="enable-background:new 0 0 155.9 155.9;" xml:space="preserve">
<style type="text/css">
	.st0{display:none;}
	.st1{display:inline;}
	.st2{fill:#816247;}
	.st3{fill:#997354;}
	.st4{fill:#E59265;}
	.st5{fill:#9DC44C;}
	.st6{fill-rule:evenodd;clip-rule:evenodd;fill:#8FB346;}
	.st7{fill-rule:evenodd;clip-rule:evenodd;fill:#9DC44C;}
	.st8{fill:#8FB346;}
	.st9{fill:#C1734C;}
	.st10{fill-rule:evenodd;clip-rule:evenodd;fill:#85A542;}
	.st11{fill:#897053;}
	.st12{fill:#708739;}
	.st13{fill:#F7E446;}
</style>
<g id="Calque_1" class="st0">
	<g class="st1">
		<path class="st2" d="M83.5,37.8c0-3.9-5.7-4.6-5.7-0.8c0,4.4-2.3,6-2.3,8.4c0,3,6.8,3.5,6.8,0.3C82.2,42.6,83.5,43,83.5,37.8z"/>
		<path class="st3" d="M81.3,37.3c4.7,0-3.9-6-3.9-0.5c0,4.4-3.2,6.5-1.8,9.4C78.6,42.5,76.4,37.3,81.3,37.3z"/>
		<path class="st4" d="M33.1,77.4c0-27.3,22.2-43.9,45.8-31.2c24-12.1,51,3.9,51,31.2c0,24.5-13.4,38.2-30.2,44.4
			c-6.1,2.3-17.5,5-24,4.9c-4.7-0.1-4.6-2.5-9.2-3.8C48.3,117.5,33.1,103.5,33.1,77.4z"/>
		<path class="st5" d="M80.2,36.5c-0.2,0-0.4-0.1-0.5-0.3c-3.4-5-6.6-3.9-6.6-3.9l-0.3-1.7c0,0,4.1-1.4,8,4.4
			c0.2,0.4,0.2,0.9-0.1,1.2C80.5,36.5,80.4,36.5,80.2,36.5z"/>
		<path class="st6" d="M66.5,26c-16.8-1.6-34.1,17.7-34.1,17.7s11.7-4.4,21.9-2.3c10.3,2.2,19.3-10.1,19.3-10.1S71.2,26.4,66.5,26z"
			/>
		<path class="st7" d="M50.9,39.3C42.1,51.1,29,57.9,29,57.9S54,60.5,69.2,43c4.3-4.9,4.4-12,4.4-12S59.7,27.4,50.9,39.3z"/>
		<path class="st8" d="M73.7,31c-1.8,0.3-3.6,0.9-5.6,1.7c-1.9,0.8-3.9,1.9-5.9,3.1c-3.9,2.5-7.5,5.7-11,8.6c-3.5,3-7,5.7-10.8,8
			c-3.8,2.3-7.6,4-11.4,5.5c1.8-0.5,3.7-1.1,5.6-1.8c1.9-0.8,3.9-1.7,5.9-2.8c4-2.2,7.8-5.1,11.3-8.1c3.5-3,6.9-6,10.6-8.6
			C66,34,69.9,32.2,73.7,31z"/>
		<path class="st9" d="M93.7,79.5c0.7,6,0.4,12-1.2,17.7c-1.7,5.7-4.8,11-9.8,15.5c7-2.7,12.2-7.9,15-13.8
			c2.9-5.9,3.7-12.6,2.9-19.2c-0.8-6.6-3.2-13.3-7.2-19.4c-3.9-6.1-9.7-12-17.3-15.3c5.9,5,9.6,10.7,12.5,16.6
			C91.3,67.4,93,73.4,93.7,79.5z"/>
	</g>
</g>
<g id="Calque_2">
	<g>
		<path class="st10" d="M68.6,27.3c-11.5-5.2-19.5,10.9-19.5,10.9s3.3,7.5,8.5,9.1C76,53,92,28.3,92,28.3S79.9,32.4,68.6,27.3z"/>
		<path class="st11" d="M38.1,32.5c-0.6-0.1-0.8,2.3-0.2,2.4c10.1,2.2,14.3,9.7,14.6,11.1c0.5,2,3.3-0.1,2.4-2.5
			C54.7,43.1,48.7,33.8,38.1,32.5z"/>
		<path class="st12" d="M115.8,111.9c0.4,0.4,2.4,1,3.3,0c0.9-1,0.4-3,0-3.5c-0.4-0.4-1.5,0-2.4,0.9
			C115.7,110.4,115.3,111.5,115.8,111.9z"/>
		<path class="st13" d="M51.3,50.3c-0.8-1.1,0.2-3.7,2.4-6c2.2-2.3,4.7-3.3,5.8-2.5c13.3-8.7,33.7-4.6,48.4,10.5
			c13.1,13.5,17.6,31.8,12.4,45.4c2.6,3.3,1.7,9-2.3,13.1c-4,4.1-9.5,5.1-12.7,2.4c-13.1,5.3-30.8,0.7-43.9-12.9
			C46.8,85.2,43,64.1,51.3,50.3z"/>
		<path class="st7" d="M53.5,45.6C51.2,38.9,41.4,35,41.4,35S21.3,46.4,28.6,61c7.2,14.5,2.6,30.5,2.6,30.5S61.7,69.2,53.5,45.6z"/>
		<path class="st8" d="M41.4,35c-1.4,1.8-2.6,3.9-3.6,6.2c-1,2.3-1.6,4.7-2,7.2c-0.7,5.1-0.1,10.1,0.3,14.9
			c0.4,4.8,0.5,9.7-0.3,14.5c-0.8,4.8-2.5,9.3-4.6,13.7c1.3-2,2.5-4.1,3.5-6.3c1-2.2,1.8-4.6,2.3-7.1c1.2-4.9,1.1-10.1,0.7-15
			c-0.4-4.9-1.1-9.7-0.7-14.5C37.4,43.8,39.1,39.2,41.4,35z"/>
	</g>
</g>
</svg>
