<?xml version="1.0" encoding="utf-8"?>
<!-- Generator: Adobe Illustrator 25.4.1, SVG Export Plug-In . SVG Version: 6.00 Build 0)  -->
<svg version="1.1" id="Calque_2" xmlns="http://www.w3.org/2000/svg" xmlns:xlink="http://www.w3.org/1999/xlink" x="0px" y="0px"
	 viewBox="0 0 155.9 155.9" style="enable-background:new 0 0 155.9 155.9;" xml:space="preserve">
<style type="text/css">
	.st0{fill:#9DC44C;}
	.st1{fill:#708739;}
	.st2{fill:#CF4E3F;}
	.st3{fill:#FAEFEF;}
</style>
<g>
	<g>
		<path class="st0" d="M68.5,48.1c1.9-5.2,16.2-14.8,16.2-14.8s4.5,17.2,2.6,22.3c-1.9,5.1-7.6,7.6-12.8,5.5
			C69.3,59.1,66.6,53.3,68.5,48.1z"/>
		<path class="st1" d="M60,58.4c-2.3-5,1.1-22,1.1-22s15.3,8.9,17.6,13.9c2.3,5,0,10.8-5.2,13C68.3,65.7,62.3,63.4,60,58.4z"/>
		<path class="st0" d="M64.8,53.7c-5-2.3-21.9,1.1-21.9,1.1s8.9,15.3,13.9,17.6c5,2.3,10.8,0,13-5.2C71.9,62,69.7,56,64.8,53.7z"/>
		<path class="st1" d="M54.5,62.2c-5.1,1.9-14.7,16.3-14.7,16.3S56.9,83,62,81.1c5.1-1.9,7.6-7.7,5.5-12.9
			C65.4,63,59.6,60.3,54.5,62.2z"/>
		<path class="st2" d="M105.8,53c15.3,15.4,17.1,49,9.8,56.2c-7.3,7.3-40.5,5.5-55.9-10c-11.3-11.4-6-28.6,5.8-40.4
			C77.3,47,94.5,41.6,105.8,53z"/>
		<path class="st3" d="M91.5,51.7c-0.7,0-1.3,0.2-1.7,0.8c-0.7,1-0.1,2.7,1.4,3.7c0.8,0.5,1.6,0.8,2.3,0.8c0.7,0,1.3-0.2,1.7-0.8
			c0.7-1,0.1-2.7-1.4-3.7C93,51.9,92.2,51.7,91.5,51.7"/>
		<path class="st3" d="M96.3,75c-0.4,0-0.9,0.1-1.2,0.4c-0.9,0.8-0.7,2.6,0.5,4c0.8,0.9,1.8,1.4,2.7,1.4c0.4,0,0.9-0.1,1.2-0.4
			c0.9-0.8,0.7-2.6-0.5-4C98.2,75.5,97.2,75,96.3,75"/>
		<path class="st3" d="M84.8,63.5c-0.4,0-0.8,0.1-1.1,0.4c-1,0.8-0.8,2.6,0.4,4c0.8,0.9,1.8,1.5,2.7,1.5c0.4,0,0.8-0.1,1.1-0.4
			c1-0.8,0.8-2.6-0.4-4C86.7,64,85.7,63.5,84.8,63.5"/>
		<path class="st3" d="M104.5,64.8c-0.3,0-0.5,0.1-0.8,0.2c-1.1,0.6-1.3,2.4-0.4,4c0.7,1.2,1.8,2,2.8,2c0.3,0,0.5-0.1,0.8-0.2
			c1.1-0.6,1.3-2.4,0.4-4C106.5,65.6,105.4,64.8,104.5,64.8"/>
		<path class="st3" d="M110.6,82.4c-0.1,0-0.3,0-0.4,0.1c-1.2,0.3-1.8,2-1.3,3.8c0.4,1.6,1.5,2.7,2.6,2.7c0.1,0,0.3,0,0.4-0.1
			c1.2-0.3,1.8-2,1.3-3.8C112.8,83.5,111.6,82.4,110.6,82.4"/>
		<path class="st3" d="M109,99c-0.5,0-0.9,0.1-1.2,0.4c-0.9,0.8-0.7,2.6,0.5,4c0.8,0.9,1.8,1.4,2.7,1.4c0.5,0,0.9-0.1,1.2-0.4
			c0.9-0.8,0.7-2.6-0.5-4C110.9,99.5,109.9,99,109,99"/>
		<path class="st3" d="M79.4,96.9c-0.7,0-1.4,0.3-1.7,0.8c-0.7,1,0,2.7,1.5,3.7c0.7,0.5,1.6,0.8,2.3,0.8c0.7,0,1.4-0.3,1.7-0.8
			c0.7-1,0-2.7-1.5-3.7C81,97.2,80.1,96.9,79.4,96.9"/>
		<path class="st3" d="M64,92.5c-0.7,0-1.4,0.3-1.7,0.8c-0.7,1,0,2.7,1.5,3.7c0.7,0.5,1.6,0.8,2.3,0.8c0.7,0,1.4-0.3,1.7-0.8
			c0.7-1,0-2.7-1.5-3.7C65.5,92.8,64.7,92.5,64,92.5"/>
		<path class="st3" d="M92.6,103.4c-1,0-1.9,0.4-2.2,1.2c-0.5,1.2,0.5,2.6,2.2,3.3c0.6,0.2,1.1,0.3,1.7,0.3c1,0,1.9-0.4,2.2-1.2
			c0.5-1.2-0.5-2.6-2.2-3.3C93.7,103.5,93.2,103.4,92.6,103.4"/>
		<path class="st3" d="M95.6,90.1c-0.8,0-1.5,0.3-1.8,0.9c-0.6,1.1,0.1,2.7,1.7,3.6c0.7,0.4,1.5,0.6,2.1,0.6c0.8,0,1.5-0.3,1.8-0.9
			c0.6-1.1-0.1-2.7-1.7-3.6C97,90.3,96.3,90.1,95.6,90.1"/>
		<path class="st3" d="M81.4,80.6c-0.6,0-1.1,0.2-1.5,0.6c-0.8,1-0.3,2.7,1.1,3.8c0.8,0.7,1.7,1,2.5,1c0.6,0,1.1-0.2,1.5-0.6
			c0.8-1,0.3-2.7-1.1-3.8C83.1,80.9,82.2,80.6,81.4,80.6"/>
		<path class="st3" d="M69.8,62.6c-0.5,0-1,0.2-1.3,0.5c-0.9,0.9-0.6,2.6,0.7,3.9c0.8,0.8,1.8,1.3,2.6,1.3c0.5,0,1-0.2,1.3-0.5
			c0.9-0.9,0.6-2.6-0.7-3.9C71.7,63,70.7,62.6,69.8,62.6"/>
		<path class="st3" d="M66,77c-0.6,0-1.2,0.2-1.5,0.7c-0.8,1-0.2,2.7,1.2,3.8c0.8,0.6,1.7,0.9,2.4,0.9c0.6,0,1.2-0.2,1.5-0.7
			c0.8-1,0.2-2.7-1.2-3.8C67.7,77.3,66.8,77,66,77"/>
	</g>
</g>
</svg>
