<?xml version="1.0" encoding="utf-8"?>
<!-- Generator: Adobe Illustrator 25.4.1, SVG Export Plug-In . SVG Version: 6.00 Build 0)  -->
<svg version="1.1" xmlns="http://www.w3.org/2000/svg" xmlns:xlink="http://www.w3.org/1999/xlink" x="0px" y="0px"
	 viewBox="0 0 155.9 155.9" style="enable-background:new 0 0 155.9 155.9;" xml:space="preserve">
<style type="text/css">
	.st0{display:none;}
	.st1{display:inline;}
	.st2{fill:#9DC44C;}
	.st3{fill:#708739;}
	.st4{fill:#CF4E3F;}
	.st5{fill:#FAEFEF;}
	.st6{fill:#EEE8CB;}
	.st7{fill:#8D652E;}
	.st8{fill:#F7E636;}
	.st9{fill:#DCC72F;}
	.st10{fill:#F4F4F4;}
	.st11{fill:#6EAADE;}
	.st12{fill:#92755A;}
	.st13{fill:#7F664E;}
	.st14{fill:#BCD73D;}
	.st15{fill:#CFE561;}
	.st16{fill:#F0FFAF;}
	.st17{fill:#424548;}
	.st18{fill-rule:evenodd;clip-rule:evenodd;fill:#95BD58;}
	.st19{fill:#897053;}
	.st20{fill-rule:evenodd;clip-rule:evenodd;fill:#CF4E3F;}
	.st21{fill:#9F613C;}
	.st22{fill:#D5A456;}
	.st23{fill:#91AF42;}
</style>
<g id="Calque_2" class="st0">
	<g class="st1">
		<g>
			<path class="st2" d="M68.5,48.1c1.9-5.2,16.2-14.8,16.2-14.8s4.5,17.2,2.6,22.3c-1.9,5.1-7.6,7.6-12.8,5.5
				C69.3,59.1,66.6,53.3,68.5,48.1z"/>
			<path class="st3" d="M60,58.4c-2.3-5,1.1-22,1.1-22s15.3,8.9,17.6,13.9c2.3,5,0,10.8-5.2,13C68.3,65.7,62.3,63.4,60,58.4z"/>
			<path class="st2" d="M64.8,53.7c-5-2.3-21.9,1.1-21.9,1.1s8.9,15.3,13.9,17.6c5,2.3,10.8,0,13-5.2C71.9,62,69.7,56,64.8,53.7z"/>
			<path class="st3" d="M54.5,62.2c-5.1,1.9-14.7,16.3-14.7,16.3S56.9,83,62,81.1c5.1-1.9,7.6-7.7,5.5-12.9
				C65.4,63,59.6,60.3,54.5,62.2z"/>
			<path class="st4" d="M105.8,53c15.3,15.4,17.1,49,9.8,56.2c-7.3,7.3-40.5,5.5-55.9-10c-11.3-11.4-6-28.6,5.8-40.4
				C77.3,47,94.5,41.6,105.8,53z"/>
			<path class="st5" d="M91.5,51.7c-0.7,0-1.3,0.2-1.7,0.8c-0.7,1-0.1,2.7,1.4,3.7c0.8,0.5,1.6,0.8,2.3,0.8c0.7,0,1.3-0.2,1.7-0.8
				c0.7-1,0.1-2.7-1.4-3.7C93,51.9,92.2,51.7,91.5,51.7"/>
			<path class="st5" d="M96.3,75c-0.4,0-0.9,0.1-1.2,0.4c-0.9,0.8-0.7,2.6,0.5,4c0.8,0.9,1.8,1.4,2.7,1.4c0.4,0,0.9-0.1,1.2-0.4
				c0.9-0.8,0.7-2.6-0.5-4C98.2,75.5,97.2,75,96.3,75"/>
			<path class="st5" d="M84.8,63.5c-0.4,0-0.8,0.1-1.1,0.4c-1,0.8-0.8,2.6,0.4,4c0.8,0.9,1.8,1.5,2.7,1.5c0.4,0,0.8-0.1,1.1-0.4
				c1-0.8,0.8-2.6-0.4-4C86.7,64,85.7,63.5,84.8,63.5"/>
			<path class="st5" d="M104.5,64.8c-0.3,0-0.5,0.1-0.8,0.2c-1.1,0.6-1.3,2.4-0.4,4c0.7,1.2,1.8,2,2.8,2c0.3,0,0.5-0.1,0.8-0.2
				c1.1-0.6,1.3-2.4,0.4-4C106.5,65.6,105.4,64.8,104.5,64.8"/>
			<path class="st5" d="M110.6,82.4c-0.1,0-0.3,0-0.4,0.1c-1.2,0.3-1.8,2-1.3,3.8c0.4,1.6,1.5,2.7,2.6,2.7c0.1,0,0.3,0,0.4-0.1
				c1.2-0.3,1.8-2,1.3-3.8C112.8,83.5,111.6,82.4,110.6,82.4"/>
			<path class="st5" d="M109,99c-0.5,0-0.9,0.1-1.2,0.4c-0.9,0.8-0.7,2.6,0.5,4c0.8,0.9,1.8,1.4,2.7,1.4c0.5,0,0.9-0.1,1.2-0.4
				c0.9-0.8,0.7-2.6-0.5-4C110.9,99.5,109.9,99,109,99"/>
			<path class="st5" d="M79.4,96.9c-0.7,0-1.4,0.3-1.7,0.8c-0.7,1,0,2.7,1.5,3.7c0.7,0.5,1.6,0.8,2.3,0.8c0.7,0,1.4-0.3,1.7-0.8
				c0.7-1,0-2.7-1.5-3.7C81,97.2,80.1,96.9,79.4,96.9"/>
			<path class="st5" d="M64,92.5c-0.7,0-1.4,0.3-1.7,0.8c-0.7,1,0,2.7,1.5,3.7c0.7,0.5,1.6,0.8,2.3,0.8c0.7,0,1.4-0.3,1.7-0.8
				c0.7-1,0-2.7-1.5-3.7C65.5,92.8,64.7,92.5,64,92.5"/>
			<path class="st5" d="M92.6,103.4c-1,0-1.9,0.4-2.2,1.2c-0.5,1.2,0.5,2.6,2.2,3.3c0.6,0.2,1.1,0.3,1.7,0.3c1,0,1.9-0.4,2.2-1.2
				c0.5-1.2-0.5-2.6-2.2-3.3C93.7,103.5,93.2,103.4,92.6,103.4"/>
			<path class="st5" d="M95.6,90.1c-0.8,0-1.5,0.3-1.8,0.9c-0.6,1.1,0.1,2.7,1.7,3.6c0.7,0.4,1.5,0.6,2.1,0.6c0.8,0,1.5-0.3,1.8-0.9
				c0.6-1.1-0.1-2.7-1.7-3.6C97,90.3,96.3,90.1,95.6,90.1"/>
			<path class="st5" d="M81.4,80.6c-0.6,0-1.1,0.2-1.5,0.6c-0.8,1-0.3,2.7,1.1,3.8c0.8,0.7,1.7,1,2.5,1c0.6,0,1.1-0.2,1.5-0.6
				c0.8-1,0.3-2.7-1.1-3.8C83.1,80.9,82.2,80.6,81.4,80.6"/>
			<path class="st5" d="M69.8,62.6c-0.5,0-1,0.2-1.3,0.5c-0.9,0.9-0.6,2.6,0.7,3.9c0.8,0.8,1.8,1.3,2.6,1.3c0.5,0,1-0.2,1.3-0.5
				c0.9-0.9,0.6-2.6-0.7-3.9C71.7,63,70.7,62.6,69.8,62.6"/>
			<path class="st5" d="M66,77c-0.6,0-1.2,0.2-1.5,0.7c-0.8,1-0.2,2.7,1.2,3.8c0.8,0.6,1.7,0.9,2.4,0.9c0.6,0,1.2-0.2,1.5-0.7
				c0.8-1,0.2-2.7-1.2-3.8C67.7,77.3,66.8,77,66,77"/>
		</g>
	</g>
</g>
<g id="Calque_3">
	<g>
		<path class="st6" d="M30.7,81c-1.5,2.2-3.9,0.3-2.4-1.9c2.7-2.6,2.7-6.3,3.7-6.5C33.3,72.5,34.2,76.4,30.7,81z"/>
		<path class="st7" d="M21.1,80.7l-0.8,0.7c0.2,0.3,0.4,0.6,0.7,0.9c0.4-0.3,0.8-0.7,1.1-1.2C21.8,81,21.5,80.9,21.1,80.7z"/>
		<path class="st8" d="M27.8,75.9c-1.7-0.4-2.7,0.7-2.7,0.7c1.6-0.8,3.9,1.1,3.6,1.7c-1.2,2.1-3.5,3.4-5.9,2.9
			c-0.2,0-0.3-0.1-0.5-0.1c-0.3,0.4-0.7,0.8-1.1,1.2c3.3,1.6,7.2,0.7,8.8-2.6C30.5,78.3,29.2,76.3,27.8,75.9z"/>
		<path class="st9" d="M34.2,81.3c0,0-0.3-1.3-1.9-1.9c-1.5-0.6-2.5,0.3-2.5,0.3c-1.2,2.2-3.7,3.5-6.2,3c-0.8-0.1-1.5-0.4-2.1-0.9
			c-0.2,0.2-0.3,0.3-0.5,0.4c0.9,1,2.1,1.7,3.4,2c2.1,0.4,4.2-0.4,5.6-1.9C32.3,79.6,34.2,81.3,34.2,81.3z"/>
		<path class="st10" d="M27.9,80.8c0.7-0.4,1-1.1,0.8-1.6c-0.1-0.1-0.2-0.2-0.4-0.3c0,0.1-0.1,0.1-0.1,0.2c0.1,0,0.2,0.1,0.3,0.2
			c0.2,0.4-0.1,0.9-0.6,1.3c-0.5,0.3-1.1,0.3-1.3,0c-0.1,0.1-0.2,0.1-0.3,0.1c0,0,0,0,0,0C26.4,81.2,27.2,81.2,27.9,80.8z"/>
		<path class="st11" d="M26.5,80.6c0.2,0.3,0.8,0.4,1.3,0c0.5-0.3,0.8-0.9,0.6-1.3c-0.1-0.1-0.2-0.2-0.3-0.2
			C27.7,79.7,27.1,80.2,26.5,80.6z"/>
		<path class="st8" d="M34.2,81.3c0.1,1.2-0.8,3.2-2.4,3.4c-1.5,0.3,2-4.6-0.4-5.6C31.5,79.1,34.1,79.1,34.2,81.3z"/>
		<path class="st9" d="M28.2,76.1c-3.4-1.4-4.6,2.9-2.9,2.4C25.9,78.3,26.3,77,28.2,76.1z"/>
	</g>
	<g>
		<path class="st12" d="M64.1,85.6c-11,0-11-13.9,0-13.9V85.6z"/>
		<ellipse class="st13" cx="64.1" cy="78.7" rx="5.6" ry="6.9"/>
		<ellipse class="st14" cx="64.1" cy="78.7" rx="5.3" ry="6.5"/>
		<ellipse class="st15" cx="64.1" cy="78.7" rx="4.6" ry="5.7"/>
		<path class="st14" d="M67.8,79.9c-0.1,0.3-1.4,0-1.6,0.3c-0.1,0.3,0.8,1.6,0.6,1.8c-0.2,0.2-1.2-0.9-1.5-0.7
			c-0.2,0.2,0,1.8-0.2,1.9c-0.3,0.1-0.7-1.5-1-1.5c-0.3,0-0.7,1.6-1,1.5c-0.3-0.1,0-1.8-0.2-1.9c-0.2-0.2-1.3,0.9-1.5,0.7
			c-0.2-0.2,0.7-1.5,0.6-1.8c-0.1-0.3-1.5,0-1.6-0.3c-0.1-0.3,1.2-0.9,1.2-1.2c0-0.3-1.3-0.9-1.2-1.2c0.1-0.3,1.4,0,1.6-0.3
			c0.1-0.3-0.8-1.6-0.6-1.8c0.2-0.2,1.2,0.9,1.5,0.7c0.2-0.2,0-1.8,0.2-1.9c0.3-0.1,0.7,1.5,1,1.5c0.3,0,0.7-1.6,1-1.5
			c0.3,0.1,0,1.8,0.2,1.9c0.2,0.2,1.3-0.9,1.5-0.7c0.2,0.2-0.7,1.5-0.6,1.8c0.1,0.3,1.5,0,1.6,0.3c0.1,0.3-1.2,0.9-1.2,1.2
			C66.5,79,67.8,79.6,67.8,79.9z"/>
		<polygon class="st16" points="67.2,78.7 65.3,79.1 66.8,80.6 65,79.8 65.7,82 64.4,80.2 64.1,82.5 63.8,80.2 62.6,82 63.2,79.8 
			61.5,80.6 62.9,79.1 61,78.7 62.9,78.3 61.5,76.8 63.2,77.6 62.6,75.4 63.8,77.2 64.1,74.9 64.4,77.2 65.7,75.4 65,77.6 
			66.8,76.8 65.3,78.3 		"/>
		<polygon class="st17" points="63.5,75.3 63.4,75.9 63.7,76.3 63.8,75.7 		"/>
		<polygon class="st17" points="62.9,74.5 62.8,75.1 63.1,75.5 63.2,75 		"/>
		<polygon class="st17" points="65,75.2 64.6,75.5 64.6,76.1 64.9,75.8 		"/>
		<polygon class="st17" points="64.8,82.1 64.9,81.5 64.6,81.1 64.5,81.6 		"/>
		<polygon class="st17" points="65.3,82.8 65.4,82.3 65.1,81.8 65,82.4 		"/>
		<polygon class="st17" points="63.3,82.2 63.6,81.9 63.7,81.3 63.3,81.6 		"/>
		<polygon class="st17" points="66.9,77.9 66.4,77.8 66.1,78.1 66.5,78.3 		"/>
		<polygon class="st17" points="67.5,77.2 67,77 66.7,77.4 67.1,77.5 		"/>
		<polygon class="st17" points="67,79.7 66.7,79.3 66.2,79.2 66.5,79.7 		"/>
		<polygon class="st17" points="61.4,79.5 61.8,79.6 62.2,79.2 61.7,79.1 		"/>
		<polygon class="st17" points="60.7,80.2 61.2,80.3 61.5,79.9 61.1,79.8 		"/>
		<polygon class="st17" points="61.3,77.6 61.5,78.1 62,78.1 61.7,77.7 		"/>
		<polygon class="st17" points="66.3,76.5 65.9,76.6 65.7,77.2 66.1,77 		"/>
		<polygon class="st17" points="66.6,75.5 66.2,75.6 66,76.2 66.4,76 		"/>
		<polygon class="st17" points="61.6,81.8 62.1,81.7 62.2,81.2 61.8,81.3 		"/>
		<polygon class="st17" points="62.4,76 62.5,76.5 62.9,76.8 62.8,76.2 		"/>
		<polygon class="st17" points="61.6,75.6 61.7,76.1 62.1,76.4 62,75.8 		"/>
		<polygon class="st17" points="66.7,81.8 66.6,81.2 66.2,81 66.3,81.5 		"/>
	</g>
	<g>
		<path class="st18" d="M98.2,72.4c0.3,0.6-0.1,2.5-0.1,2.5s-1.7-1-2-1.6c-0.3-0.6,0-1.2,0.6-1.5C97.3,71.6,97.9,71.8,98.2,72.4z"/>
		<path class="st19" d="M98.6,75.1H98c0-1,0.6-2.7,2.8-2.7V73C98.8,73,98.6,74.9,98.6,75.1z"/>
		<path class="st20" d="M98.3,74.9c-1.7-1.7-6.7-1.8-6.7,3.1c0,3.1,3.6,7.6,5.2,7.6c0.7,0,1-0.5,1.4-0.5c0.4,0,0.6,0.5,1.5,0.5
			c1.6,0,5.3-4.4,5.3-7.6C105,73.1,100,73.2,98.3,74.9z"/>
	</g>
	<g>
		<path class="st3" d="M130.4,73.9c1.1,1.1,1.3,1.9,0.9,2.3c-0.4,0.4-1.1,0.2-2.3-0.9c-1.1-1.1-1.8-3.2-1.8-3.2
			S129.2,72.7,130.4,73.9z"/>
		<path class="st3" d="M131.9,74.5c0.7,1.5,0.6,2.2,0.1,2.5c-0.5,0.2-1.1-0.2-1.8-1.7c-0.7-1.5-0.6-3.6-0.6-3.6
			S131.3,73.1,131.9,74.5z"/>
		<path class="st3" d="M133.3,76.2c-0.7,1.5-1.3,1.9-1.8,1.7c-0.5-0.2-0.6-1,0.1-2.5c0.7-1.5,2.3-2.8,2.3-2.8S134,74.7,133.3,76.2z"
			/>
		<path class="st3" d="M132.7,75.4c-0.1,1.6-0.5,2.2-1.1,2.2c-0.5,0-0.9-0.7-0.8-2.3c0.1-1.6,1.1-3.5,1.1-3.5S132.8,73.8,132.7,75.4
			z"/>
		<path class="st3" d="M134.1,76.8c-1,1.2-1.8,1.5-2.2,1.1c-0.4-0.3-0.3-1.1,0.7-2.3c1-1.2,3-2.1,3-2.1S135.2,75.6,134.1,76.8z"/>
		<path class="st3" d="M129.7,76.8c1.5,0.7,2.2,0.6,2.5,0.1c0.2-0.5-0.2-1.1-1.7-1.8c-1.5-0.7-3.6-0.6-3.6-0.6
			S128.3,76.1,129.7,76.8z"/>
		<path class="st3" d="M131.4,78.1c1.5-0.7,1.9-1.3,1.7-1.8c-0.2-0.5-1-0.6-2.5,0.1c-1.5,0.7-2.8,2.3-2.8,2.3S129.9,78.8,131.4,78.1
			z"/>
		<path class="st3" d="M130.6,77.5c1.6-0.1,2.2-0.5,2.2-1.1c0-0.5-0.7-0.9-2.3-0.8c-1.6,0.1-3.5,1.1-3.5,1.1S129,77.6,130.6,77.5z"
			/>
		<path class="st3" d="M132,79c1.2-1,1.5-1.8,1.1-2.2c-0.3-0.4-1.1-0.3-2.3,0.7c-1.2,1-2.1,3-2.1,3S130.8,80,132,79z"/>
		<path class="st21" d="M139.4,78.5c1.8,1.8,1.3,3.9-0.2,5.5c-1.6,1.6-3.6,2.1-5.5,0.2c-1.8-1.8-3.4-6-1.8-7.5
			C133.4,75.1,137.5,76.6,139.4,78.5z"/>
		<path class="st22" d="M137.3,82.2c-0.2,0.2-0.5,1-0.3,1.2c0.2,0.2,1-0.1,1.2-0.3c0.2-0.2,0.5-1,0.3-1.2
			C138.3,81.7,137.6,81.9,137.3,82.2z"/>
		<path class="st22" d="M138.7,83.5c-0.2,0.2-0.4,1.1-0.2,1.3c0.2,0.2,1.7-1.3,1.5-1.5C139.8,83.1,138.9,83.3,138.7,83.5z"/>
		<path class="st22" d="M134.5,79.3c-0.2,0.2-0.5,1-0.3,1.2c0.2,0.2,1-0.1,1.2-0.3c0.2-0.2,0.5-1,0.3-1.2S134.7,79.1,134.5,79.3z"/>
		<path class="st22" d="M135.9,80.7c-0.2,0.2-0.5,1-0.3,1.2c0.2,0.2,1-0.1,1.2-0.3c0.2-0.2,0.5-1,0.3-1.2
			C136.9,80.3,136.1,80.5,135.9,80.7z"/>
		<path class="st22" d="M133.2,78c-0.2,0.2-0.5,1-0.3,1.2s1-0.1,1.2-0.3c0.2-0.2,0.5-1,0.3-1.2S133.4,77.8,133.2,78z"/>
		<path class="st22" d="M133.2,83.3c-0.3,0.3-0.2,1.3,0.8,1.6c0.3,0.1,0.8-1.7,0.6-1.9C134.2,82.6,133.4,83.1,133.2,83.3z"/>
		<path class="st22" d="M134.9,84.6c-0.8,0.8,0.5,1.3,1.1,0.8c0.2-0.2,0.3-0.8,0.1-1C135.8,84.2,135.1,84.4,134.9,84.6z"/>
		<path class="st22" d="M135.3,82.6c-0.2,0.2-0.5,1.2-0.3,1.4c0.2,0.2,1.2,0,1.4-0.2c0.2-0.2,0.4-1.1,0.1-1.3
			C136.4,82.2,135.5,82.4,135.3,82.6z"/>
		<path class="st22" d="M136.7,84c-0.2,0.2-0.4,1.1-0.2,1.3c0.4,0.4,1.1,0.1,1.3-0.1c0.2-0.2,0.4-1.1,0.1-1.3
			C137.8,83.6,136.9,83.8,136.7,84z"/>
		<path class="st22" d="M133.9,81.2c-0.2,0.2-0.5,1.1-0.3,1.3c0.2,0.2,1.2,0,1.4-0.3c0.2-0.2,0.4-1.1,0.2-1.3
			C135,80.8,134.1,81,133.9,81.2z"/>
		<path class="st22" d="M131.2,78.5c-0.2,0.2-0.3,0.8-0.1,1.1c0.2,0.2,0.8,0.1,1.1-0.1c0.2-0.2,0.5-1,0.3-1.2
			C132.2,78,131.4,78.3,131.2,78.5z"/>
		<path class="st22" d="M131.2,80.1c-0.2,0.2,0.2,1.5,0.4,1.3c0.2-0.2,0.6-1.1,0.4-1.3S131.4,79.9,131.2,80.1z"/>
		<path class="st22" d="M132.1,81.8c-0.3,0.3-0.3,1.4,0.4,1.5c0.3,0,1-1.5,0.8-1.7C133,81.4,132.3,81.6,132.1,81.8z"/>
		<path class="st22" d="M132.5,79.9c-0.2,0.2-0.4,1.1-0.2,1.3c0.2,0.2,1.1,0,1.3-0.2c0.2-0.2,0.4-1.1,0.2-1.3
			C133.6,79.5,132.7,79.6,132.5,79.9z"/>
		<path class="st22" d="M138.5,78c0.3-0.3,1.3-0.2,1.6,0.8c0.1,0.3-1.7,0.8-1.9,0.6C137.8,79.1,138.3,78.2,138.5,78z"/>
		<path class="st22" d="M139.8,79.7c0.8-0.8,1.3,0.5,0.8,1.1c-0.2,0.2-0.8,0.3-1,0.1C139.4,80.6,139.6,79.9,139.8,79.7z"/>
		<path class="st22" d="M137.8,80.1c0.2-0.2,1.2-0.5,1.4-0.3s0,1.2-0.2,1.4c-0.2,0.2-1.1,0.4-1.3,0.1
			C137.4,81.2,137.6,80.3,137.8,80.1z"/>
		<path class="st22" d="M139.2,81.5c0.2-0.2,1.1-0.4,1.3-0.2c0.4,0.4,0.1,1.1-0.1,1.3c-0.2,0.2-1.1,0.4-1.3,0.1
			C138.8,82.6,139,81.8,139.2,81.5z"/>
		<path class="st22" d="M136.4,78.7c0.2-0.2,1.1-0.5,1.3-0.3c0.2,0.2,0,1.2-0.3,1.4c-0.2,0.2-1.1,0.4-1.3,0.2
			C136,79.8,136.2,79,136.4,78.7z"/>
		<path class="st22" d="M133.7,76c0.2-0.2,0.8-0.3,1.1-0.1s0.1,0.8-0.1,1.1c-0.2,0.2-1,0.5-1.2,0.3C133.2,77,133.5,76.3,133.7,76z"
			/>
		<path class="st22" d="M135.3,76.1c0.2-0.2,1.5,0.2,1.3,0.4c-0.2,0.2-1.1,0.6-1.3,0.4C135.1,76.6,135,76.3,135.3,76.1z"/>
		<path class="st22" d="M136.9,76.9c0.3-0.3,1.4-0.3,1.5,0.4c0,0.3-1.5,1-1.7,0.8C136.6,77.9,136.7,77.1,136.9,76.9z"/>
		<path class="st22" d="M135,77.3c0.2-0.2,1.1-0.4,1.3-0.2c0.2,0.2,0,1.1-0.2,1.3c-0.2,0.2-1.1,0.4-1.3,0.2
			C134.6,78.4,134.8,77.6,135,77.3z"/>
		<path class="st23" d="M131.5,75.5c0.9,0.9,1,1.4,0.8,1.6c-0.2,0.2-0.8,0-1.6-0.8s-1.5-2.3-1.5-2.3S130.7,74.7,131.5,75.5z"/>
		<path class="st23" d="M132.4,78.6c0.8-0.6,0.9-1.1,0.6-1.4c-0.3-0.3-0.8-0.3-1.5,0.3c-0.8,0.6-1.2,1.9-1.2,1.9
			S131.6,79.2,132.4,78.6z"/>
		<path class="st23" d="M131.4,76.9c1.1,0,1.6,0.3,1.7,0.6c0.1,0.4-0.3,0.6-1.4,0.7c-1.1,0-2.5-0.6-2.5-0.6S130.3,76.9,131.4,76.9z"
			/>
		<path class="st23" d="M131.3,76c1.1,0.3,1.5,0.7,1.5,1c0,0.3-0.5,0.5-1.6,0.2c-1.1-0.3-2.4-1.3-2.4-1.3S130.2,75.7,131.3,76z"/>
		<path class="st23" d="M133.7,77.2c-0.6,0.8-1.1,0.9-1.4,0.6c-0.3-0.3-0.3-0.8,0.3-1.5c0.6-0.8,1.9-1.2,1.9-1.2
			S134.4,76.5,133.7,77.2z"/>
		<path class="st23" d="M132,76.2c0,1.1,0.3,1.6,0.6,1.7c0.4,0.1,0.6-0.3,0.7-1.4c0-1.1-0.6-2.5-0.6-2.5S132.1,75.1,132,76.2z"/>
		<path class="st23" d="M131.2,76.1c0.3,1.1,0.7,1.6,1,1.5c0.3,0,0.5-0.5,0.2-1.6c-0.3-1.1-1.3-2.4-1.3-2.4S130.9,75,131.2,76.1z"/>
		<path class="st2" d="M133.3,76.5c-0.3-0.5-0.8-0.9-0.8-0.9s-0.2,0.4-0.3,0.8c-0.5-0.2-1.3-0.6-1.3-0.6s0.4,0.8,0.6,1.3
			c-0.5,0.1-0.8,0.3-0.8,0.3s0.4,0.5,0.9,0.8c-0.4,0.5-0.6,1.3-0.6,1.3s1.4-0.4,2.3-1.2c0.8-0.8,1.2-2.3,1.2-2.3
			S133.9,76.1,133.3,76.5z"/>
	</g>
</g>
</svg>
