<?xml version="1.0" encoding="utf-8"?>
<!-- Generator: Adobe Illustrator 25.4.1, SVG Export Plug-In . SVG Version: 6.00 Build 0)  -->
<svg version="1.1" xmlns="http://www.w3.org/2000/svg" xmlns:xlink="http://www.w3.org/1999/xlink" x="0px" y="0px"
	 viewBox="0 0 155.9 155.9" style="enable-background:new 0 0 155.9 155.9;" xml:space="preserve">
<style type="text/css">
	.st0{display:none;}
	.st1{display:inline;}
	.st2{fill:#EEE8CB;}
	.st3{fill:#8D652E;}
	.st4{fill:#F7E636;}
	.st5{fill:#DCC72F;}
	.st6{fill:#F4F4F4;}
	.st7{fill:#6EAADE;}
	.st8{fill:#92755A;}
	.st9{fill:#7F664E;}
	.st10{fill:#BCD73D;}
	.st11{fill:#CFE561;}
	.st12{fill:#F0FFAF;}
	.st13{fill:#424548;}
</style>
<g id="Calque_3" class="st0">
	<g class="st1">
		<path class="st2" d="M52.2,90.5c11.3,15.2,29.3,1.9,18-13.3c-20.5-18.3-20-44.5-27.8-45.4C32.6,30.8,25.4,57.8,52.2,90.5z"/>
		<path class="st3" d="M123.8,88.2l6,4.8c-1.5,2.2-3.2,4.2-5,6.2c-3-2.3-6.4-5.2-8.6-8.1C118.9,90.3,121.4,89.3,123.8,88.2z"/>
		<path class="st4" d="M73.7,54.8c12.5-3,20.7,5.2,20.7,5.2c-11.8-5.9-29.3,7.5-26.8,11.8c8.9,14.9,26.5,23.5,44.7,20.2
			c1.3-0.2,2.6-0.6,3.9-0.9c2.2,2.8,5.6,5.8,8.6,8.1c-24.5,11.4-53.9,4.7-66.3-18.3C53.4,71.5,63.1,57.3,73.7,54.8z"/>
		<path class="st5" d="M25.4,92.2c0,0,2.4-9.3,14.2-13.7c11.6-4.3,18.9,2.4,18.9,2.4c9.4,15.6,27.9,24.7,47,21.2
			c5.7-1,11-3.1,15.6-6c1.2,1.1,2.5,2.1,3.7,3c-6.7,7-15.6,12-25.8,13.9c-16.1,2.9-31.8-2.6-42.5-13.4
			C40.1,80.3,25.4,92.2,25.4,92.2z"/>
		<path class="st6" d="M73.1,88.8c-5.1-3-7.7-8-5.8-11.2c0.6-1,1.6-1.7,2.9-2.1c0.3,0.4,0.6,0.8,0.9,1.2c-0.9,0.3-1.7,0.9-2.1,1.6
			c-1.5,2.6,0.6,6.6,4.7,9.1c4,2.4,8.5,2.3,10.1-0.1c0.6,0.4,1.3,0.7,2,1c0,0,0,0.1,0,0.1C83.9,91.6,78.2,91.8,73.1,88.8z"/>
		<path class="st7" d="M83.8,87.3c-1.7,2.4-6.1,2.5-10.1,0.1C69.6,85,67.5,81,69,78.4c0.5-0.8,1.2-1.3,2.1-1.6
			C74.7,81.1,79,84.7,83.8,87.3z"/>
		<path class="st4" d="M25.4,92.2c-0.4,8.6,6.4,22.1,18,23.9c11.6,1.8-14.7-32.1,2.8-39C46.2,77.1,26.1,77.1,25.4,92.2z"/>
		<path class="st5" d="M70.8,55.8c25.9-9.9,34.6,20.5,21.7,16.9C87.8,71.4,85.1,62.4,70.8,55.8z"/>
	</g>
</g>
<g id="Calque_2">
	<g>
		<path class="st8" d="M89.9,114.7c-63.4,0-63.4-80,0-80V114.7z"/>
		<ellipse class="st9" cx="89.9" cy="74.7" rx="32.5" ry="40"/>
		<ellipse class="st10" cx="89.9" cy="74.7" rx="30.6" ry="37.7"/>
		<ellipse class="st11" cx="89.9" cy="74.7" rx="26.7" ry="32.9"/>
		<path class="st10" d="M110.9,81.7c-0.4,1.9-8.2,0-9,1.6c-0.8,1.7,4.4,9.1,3.3,10.4c-1.1,1.4-7.1-5.1-8.4-4.2
			c-1.3,1,0.2,10.6-1.4,11.1c-1.5,0.5-4-8.8-5.6-8.8c-1.5,0-4.1,9.2-5.7,8.7c-1.5-0.5,0-10.1-1.3-11.1c-1.4-1-7.4,5.4-8.4,4.1
			c-1.1-1.4,4.1-8.7,3.4-10.4c-0.8-1.7-8.6,0.2-9-1.7c-0.4-1.8,7.1-5,7.1-6.9c0-1.9-7.5-5.1-7.1-7c0.4-1.9,8.2,0,9-1.6
			c0.8-1.7-4.4-9.1-3.3-10.4c1.1-1.4,7.1,5.1,8.4,4.2c1.3-1-0.2-10.6,1.4-11.1c1.5-0.5,4,8.8,5.6,8.8c1.5,0,4.1-9.2,5.7-8.7
			c1.5,0.5,0,10.1,1.3,11.1c1.4,1,7.4-5.4,8.4-4.1c1.1,1.4-4.1,8.7-3.4,10.4c0.8,1.7,8.6-0.2,9,1.7c0.4,1.8-7.1,5-7.1,6.9
			C103.8,76.6,111.3,79.8,110.9,81.7z"/>
		<polygon class="st12" points="107.6,74.7 96.9,77 105.2,85.6 95,81 98.8,93.6 91.8,83.3 89.9,96.6 88,83.3 81,93.6 84.7,81 
			74.5,85.6 82.9,77 72.1,74.7 82.9,72.4 74.5,63.7 84.7,68.4 81,55.7 88,66.1 89.9,52.8 91.8,66.1 98.8,55.7 95,68.4 105.3,63.8 
			96.9,72.4 		"/>
		<polygon class="st13" points="86.2,55.2 85.6,58.4 87.3,60.9 87.9,57.7 		"/>
		<polygon class="st13" points="82.8,50.7 82.2,53.9 84,56.4 84.6,53.2 		"/>
		<polygon class="st13" points="94.9,54.5 92.6,56.3 92.4,59.6 94.6,57.8 		"/>
		<polygon class="st13" points="93.5,94.2 94.1,91 92.4,88.4 91.8,91.7 		"/>
		<polygon class="st13" points="96.9,98.7 97.5,95.5 95.8,92.9 95.2,96.2 		"/>
		<polygon class="st13" points="84.9,94.9 87.2,93.1 87.4,89.8 85.1,91.6 		"/>
		<polygon class="st13" points="105.7,70.2 103.1,69.4 101,71.6 103.6,72.3 		"/>
		<polygon class="st13" points="109.3,66 106.7,65.3 104.7,67.4 107.3,68.1 		"/>
		<polygon class="st13" points="106.3,80.8 104.8,78 102.2,77.8 103.6,80.6 		"/>
		<polygon class="st13" points="74.1,79.2 76.7,79.9 78.7,77.8 76.1,77.1 		"/>
		<polygon class="st13" points="70.4,83.4 73,84.1 75.1,82 72.5,81.3 		"/>
		<polygon class="st13" points="73.5,68.5 74.9,71.3 77.6,71.6 76.2,68.8 		"/>
		<polygon class="st13" points="102.6,62.2 99.9,62.9 98.8,65.9 101.5,65.2 		"/>
		<polygon class="st13" points="104.4,56.5 101.8,57.2 100.7,60.2 103.3,59.5 		"/>
		<polygon class="st13" points="75.4,92.9 78,92.2 79.1,89.2 76.5,89.9 		"/>
		<polygon class="st13" points="79.7,59.1 80.3,62.3 82.8,63.6 82.2,60.4 		"/>
		<polygon class="st13" points="75.1,56.8 75.7,60 78.1,61.4 77.5,58.2 		"/>
		<polygon class="st13" points="104.7,92.6 104.1,89.3 101.6,88 102.2,91.2 		"/>
	</g>
</g>
</svg>
