<?xml version="1.0" encoding="utf-8"?>
<!-- Generator: Adobe Illustrator 25.4.1, SVG Export Plug-In . SVG Version: 6.00 Build 0)  -->
<svg version="1.1" xmlns="http://www.w3.org/2000/svg" xmlns:xlink="http://www.w3.org/1999/xlink" x="0px" y="0px"
	 viewBox="0 0 155.9 155.9" style="enable-background:new 0 0 155.9 155.9;" xml:space="preserve">
<style type="text/css">
	.st0{display:none;}
	.st1{display:inline;}
	.st2{fill:#DE5656;}
	.st3{fill:#DBFF86;}
	.st4{fill:#9DC44C;}
	.st5{fill-rule:evenodd;clip-rule:evenodd;fill:#424548;}
	.st6{fill:#708739;}
	.st7{fill:#6F8A37;}
	.st8{fill-rule:evenodd;clip-rule:evenodd;fill:#DC983B;}
	.st9{fill-rule:evenodd;clip-rule:evenodd;fill:#8FB346;}
	.st10{fill:#EFC255;}
	.st11{fill-rule:evenodd;clip-rule:evenodd;fill:#9DC44C;}
	.st12{fill:#8FB346;}
</style>
<g id="Calque_3" class="st0">
	<g class="st1">
		<path class="st2" d="M21.1,110.5c31.3,30.2,84.3,30.2,115.8-0.1L78.9,17.1L21.1,110.5z"/>
		<path class="st3" d="M28.6,98.5l-2.2,3c22.9,20.1,71.4,28.1,105.1-0.1l-2.2-3C100,120.6,57.8,120.6,28.6,98.5z"/>
		<path class="st4" d="M26.4,101.4l-5.5,8.9c31.4,30.5,84.6,30.5,116.1-0.1l-5.5-8.9C101.5,125.4,56.3,125.4,26.4,101.4z"/>
		<path class="st5" d="M48,87.8c0-2.5,4.6-8.9,4.6-8.9s4.8,6.6,4.8,9.1c0,2.5-2,4.5-4.6,4.4C50.2,92.4,48,90.3,48,87.8z"/>
		<path class="st5" d="M72,96.7c0-2.5,4.6-8.9,4.6-8.9s4.8,6.6,4.8,9.1c0,2.5-2,4.5-4.6,4.4C74.2,101.3,72.1,99.2,72,96.7z"/>
		<path class="st5" d="M87.7,74.2c0-2.5,4.6-8.9,4.6-8.9S97,72,97,74.5c0,2.5-2,4.5-4.6,4.4C89.9,78.8,87.7,76.8,87.7,74.2z"/>
		<path class="st5" d="M103.6,95.4c0-2.5,4.6-8.9,4.6-8.9s4.8,6.6,4.8,9.1c0,2.5-2,4.5-4.6,4.4C105.7,100,103.6,97.9,103.6,95.4z"/>
		<path class="st5" d="M69.6,53.6c0-2.5,4.6-8.9,4.6-8.9s4.8,6.6,4.8,9.1c0,2.5-2,4.5-4.6,4.4C71.8,58.2,69.7,56.1,69.6,53.6z"/>
		<path class="st6" d="M71.7,119.1v13.8c4.9,0.4,9.7,0.4,14.6,0v-13.8C81.4,119.5,76.5,119.5,71.7,119.1z"/>
		<path class="st6" d="M37.5,108.8l-4.2,11.3c4.1,2.7,8.5,4.9,13,6.7l4.5-12.1C46.2,113.2,41.7,111.2,37.5,108.8z"/>
		<path class="st6" d="M120.5,108.8c-4.3,2.4-8.7,4.4-13.3,5.9l4.5,12.1c4.5-1.9,8.9-4.1,13-6.8L120.5,108.8z"/>
	</g>
</g>
<g id="Calque_2">
	<g>
		<path class="st7" d="M85.1,41.5l0.3-2.2c0.1,0,6.5,3.8,14,1.3l0.4,1.4C91.8,44.7,85.4,41.7,85.1,41.5z"/>
		<ellipse class="st8" cx="81" cy="89.1" rx="46.2" ry="42.7"/>
		<path class="st9" d="M70.4,54.7c0.3-2.1,8.3-1,8.3-1s-0.3-5.3,1-5.7c1.5-0.4,3.8,5.1,3.8,5.1s6.5-2.6,7.3-0.9
			c0.7,1.5-4.5,4.6-4.5,4.6s6.8,5.5,5.4,7.3c-1.5,1.9-8.8-3.9-8.8-3.9s-4.6,7.9-6.6,6.7c-2-1.1,1.6-9,1.6-9S70.1,56.8,70.4,54.7z"/>
		<polyline class="st10" points="64.4,73 63.1,74.4 64.4,75.8 65.8,74.4 64.4,73 		"/>
		<polyline class="st10" points="53.7,72.2 52.3,73.6 53.7,75 55.1,73.6 53.7,72.2 		"/>
		<polyline class="st10" points="45,72.2 43.7,73.6 45,75 46.4,73.6 45,72.2 		"/>
		<polyline class="st10" points="70.4,78.9 69,80.4 70.4,81.8 71.8,80.4 70.4,78.9 		"/>
		<polyline class="st10" points="64.4,86.2 63.1,87.7 64.4,89.1 65.8,87.7 64.4,86.2 		"/>
		<polyline class="st10" points="55.1,86.2 53.7,87.7 55.1,89.1 56.5,87.7 55.1,86.2 		"/>
		<polyline class="st10" points="44.4,87 43,88.4 44.4,89.9 45.8,88.4 44.4,87 		"/>
		<polyline class="st10" points="59.8,79.3 58.4,80.7 59.8,82.1 61.1,80.7 59.8,79.3 		"/>
		<polyline class="st10" points="50.4,79.3 49,80.7 50.4,82.1 51.8,80.7 50.4,79.3 		"/>
		<polyline class="st10" points="41,79.3 39.6,80.7 41,82.1 42.4,80.7 41,79.3 		"/>
		<polyline class="st10" points="69.4,66.7 68,68.1 69.4,69.5 70.8,68.1 69.4,66.7 		"/>
		<polyline class="st10" points="59.1,66.7 57.7,68.1 59.1,69.5 60.5,68.1 59.1,66.7 		"/>
		<polyline class="st10" points="49,65.2 47.6,66.7 49,68.1 50.4,66.7 49,65.2 		"/>
		<polyline class="st10" points="65.5,61.2 64.1,62.6 65.5,64 66.9,62.6 65.5,61.2 		"/>
		<polyline class="st10" points="61.6,55.8 60.2,57.2 61.6,58.7 63,57.2 61.6,55.8 		"/>
		<polyline class="st10" points="55.1,59.8 53.7,61.2 55.1,62.6 56.5,61.2 55.1,59.8 		"/>
		<polyline class="st10" points="59.8,93.4 58.4,94.8 59.8,96.2 61.1,94.8 59.8,93.4 		"/>
		<polyline class="st10" points="49.9,93.4 48.5,94.8 49.9,96.2 51.3,94.8 49.9,93.4 		"/>
		<path class="st11" d="M115.9,32c11.6,9.7,26.1,7,26.1,7s-23.5,29.5-42.8,17.4C80.9,45.1,99.1,18.1,115.9,32z"/>
		<path class="st7" d="M85.7,26.1l-3.3,1.6c5.2,16.7-1.2,25.9-2.8,27.4c-2.2,2.1,2.9,4.2,5.2,1.1C85.2,55.6,91.8,45.7,85.7,26.1z"/>
		<path class="st4" d="M84,24.6c1,0,1.8,1.1,1.8,2.4c0,1.3-0.8,2.4-1.8,2.4s-1.8-1.1-1.8-2.4C82.2,25.6,83,24.6,84,24.6z"/>
		<path class="st12" d="M91.6,42c1.8-1.3,3.8-2.3,5.8-3c2.1-0.7,4.3-1.1,6.5-1.1c4.5-0.1,8.7,1.3,12.9,2.4c4.1,1.1,8.3,1.9,12.6,1.6
			c4.2-0.2,8.4-1.4,12.5-3c-1.9,1.1-3.9,2-5.9,2.8c-2.1,0.7-4.2,1.2-6.4,1.5c-4.4,0.6-8.9-0.2-13.1-1.3c-4.2-1.1-8.3-2.5-12.5-2.7
			C99.8,39,95.6,40.1,91.6,42z"/>
	</g>
</g>
</svg>
