<?xml version="1.0" encoding="utf-8"?>
<!-- Generator: Adobe Illustrator 25.4.1, SVG Export Plug-In . SVG Version: 6.00 Build 0)  -->
<svg version="1.1" id="Calque_3" xmlns="http://www.w3.org/2000/svg" xmlns:xlink="http://www.w3.org/1999/xlink" x="0px" y="0px"
	 viewBox="0 0 155.9 155.9" style="enable-background:new 0 0 155.9 155.9;" xml:space="preserve">
<style type="text/css">
	.st0{fill:#DE5656;}
	.st1{fill:#DBFF86;}
	.st2{fill:#9DC44C;}
	.st3{fill-rule:evenodd;clip-rule:evenodd;fill:#424548;}
	.st4{fill:#708739;}
</style>
<g>
	<path class="st0" d="M21.1,110.5c31.3,30.2,84.3,30.2,115.8-0.1L78.9,17.1L21.1,110.5z"/>
	<path class="st1" d="M28.6,98.5l-2.2,3c22.9,20.1,71.4,28.1,105.1-0.1l-2.2-3C100,120.6,57.8,120.6,28.6,98.5z"/>
	<path class="st2" d="M26.4,101.4l-5.5,8.9c31.4,30.5,84.6,30.5,116.1-0.1l-5.5-8.9C101.5,125.4,56.3,125.4,26.4,101.4z"/>
	<path class="st3" d="M48,87.8c0-2.5,4.6-8.9,4.6-8.9s4.8,6.6,4.8,9.1c0,2.5-2,4.5-4.6,4.4C50.2,92.4,48,90.3,48,87.8z"/>
	<path class="st3" d="M72,96.7c0-2.5,4.6-8.9,4.6-8.9s4.8,6.6,4.8,9.1c0,2.5-2,4.5-4.6,4.4C74.2,101.3,72.1,99.2,72,96.7z"/>
	<path class="st3" d="M87.7,74.2c0-2.5,4.6-8.9,4.6-8.9S97,72,97,74.5c0,2.5-2,4.5-4.6,4.4C89.9,78.8,87.7,76.8,87.7,74.2z"/>
	<path class="st3" d="M103.6,95.4c0-2.5,4.6-8.9,4.6-8.9s4.8,6.6,4.8,9.1c0,2.5-2,4.5-4.6,4.4C105.7,100,103.6,97.9,103.6,95.4z"/>
	<path class="st3" d="M69.6,53.6c0-2.5,4.6-8.9,4.6-8.9s4.8,6.6,4.8,9.1c0,2.5-2,4.5-4.6,4.4C71.8,58.2,69.7,56.1,69.6,53.6z"/>
	<path class="st4" d="M71.7,119.1v13.8c4.9,0.4,9.7,0.4,14.6,0v-13.8C81.4,119.5,76.5,119.5,71.7,119.1z"/>
	<path class="st4" d="M37.5,108.8l-4.2,11.3c4.1,2.7,8.5,4.9,13,6.7l4.5-12.1C46.2,113.2,41.7,111.2,37.5,108.8z"/>
	<path class="st4" d="M120.5,108.8c-4.3,2.4-8.7,4.4-13.3,5.9l4.5,12.1c4.5-1.9,8.9-4.1,13-6.8L120.5,108.8z"/>
</g>
</svg>
