<?xml version="1.0" encoding="utf-8"?>
<!-- Generator: Adobe Illustrator 25.4.1, SVG Export Plug-In . SVG Version: 6.00 Build 0)  -->
<svg version="1.1" id="Calque_1" xmlns="http://www.w3.org/2000/svg" xmlns:xlink="http://www.w3.org/1999/xlink" x="0px" y="0px"
	 viewBox="0 0 155.9 155.9" style="enable-background:new 0 0 155.9 155.9;" xml:space="preserve">
<style type="text/css">
	.st0{fill:#816247;}
	.st1{fill:#997354;}
	.st2{fill:#E59265;}
	.st3{fill:#9DC44C;}
	.st4{fill-rule:evenodd;clip-rule:evenodd;fill:#8FB346;}
	.st5{fill-rule:evenodd;clip-rule:evenodd;fill:#9DC44C;}
	.st6{fill:#8FB346;}
	.st7{fill:#C1734C;}
</style>
<g>
	<path class="st0" d="M83.5,37.8c0-3.9-5.7-4.6-5.7-0.8c0,4.4-2.3,6-2.3,8.4c0,3,6.8,3.5,6.8,0.3C82.2,42.6,83.5,43,83.5,37.8z"/>
	<path class="st1" d="M81.3,37.3c4.7,0-3.9-6-3.9-0.5c0,4.4-3.2,6.5-1.8,9.4C78.6,42.5,76.4,37.3,81.3,37.3z"/>
	<path class="st2" d="M33.1,77.4c0-27.3,22.2-43.9,45.8-31.2c24-12.1,51,3.9,51,31.2c0,24.5-13.4,38.2-30.2,44.4
		c-6.1,2.3-17.5,5-24,4.9c-4.7-0.1-4.6-2.5-9.2-3.8C48.3,117.5,33.1,103.5,33.1,77.4z"/>
	<path class="st3" d="M80.2,36.5c-0.2,0-0.4-0.1-0.5-0.3c-3.4-5-6.6-3.9-6.6-3.9l-0.3-1.7c0,0,4.1-1.4,8,4.4
		c0.2,0.4,0.2,0.9-0.1,1.2C80.5,36.5,80.4,36.5,80.2,36.5z"/>
	<path class="st4" d="M66.5,26c-16.8-1.6-34.1,17.7-34.1,17.7s11.7-4.4,21.9-2.3c10.3,2.2,19.3-10.1,19.3-10.1S71.2,26.4,66.5,26z"
		/>
	<path class="st5" d="M50.9,39.3C42.1,51.1,29,57.9,29,57.9S54,60.5,69.2,43c4.3-4.9,4.4-12,4.4-12S59.7,27.4,50.9,39.3z"/>
	<path class="st6" d="M73.7,31c-1.8,0.3-3.6,0.9-5.6,1.7c-1.9,0.8-3.9,1.9-5.9,3.1c-3.9,2.5-7.5,5.7-11,8.6c-3.5,3-7,5.7-10.8,8
		c-3.8,2.3-7.6,4-11.4,5.5c1.8-0.5,3.7-1.1,5.6-1.8c1.9-0.8,3.9-1.7,5.9-2.8c4-2.2,7.8-5.1,11.3-8.1c3.5-3,6.9-6,10.6-8.6
		C66,34,69.9,32.2,73.7,31z"/>
	<path class="st7" d="M93.7,79.5c0.7,6,0.4,12-1.2,17.7c-1.7,5.7-4.8,11-9.8,15.5c7-2.7,12.2-7.9,15-13.8c2.9-5.9,3.7-12.6,2.9-19.2
		c-0.8-6.6-3.2-13.3-7.2-19.4c-3.9-6.1-9.7-12-17.3-15.3c5.9,5,9.6,10.7,12.5,16.6C91.3,67.4,93,73.4,93.7,79.5z"/>
</g>
</svg>
